<?xml version="1.0" encoding="utf-8"?><svg version="1.1" id="Layer_1" xmlns="http://www.w3.org/2000/svg" xmlns:xlink="http://www.w3.org/1999/xlink" x="0px" y="0px" viewBox="0 0 122.88 87.69" style="enable-background:new 0 0 122.88 87.69" xml:space="preserve"><style type="text/css">.st0{fill-rule:evenodd;clip-rule:evenodd;}</style><g><path class="st0" d="M52.8,74.65c3.3,9.72,17.1,10.07,20.2,0c3.65,3.29,14.46,3.94,18.48,6.19c1.27,0.71,2.42,1.61,3.34,2.83 c0.62,0.82,1.45,2.33,2.07,4.02H28.9c0.63-1.69,1.45-3.2,2.07-4.02c0.92-1.22,2.07-2.12,3.34-2.83 C38.34,78.6,49.15,77.94,52.8,74.65L52.8,74.65L52.8,74.65z M50.51,0h24.79c1.07,0,1.94,0.87,1.94,1.94v17.41 c0,1.07-0.87,1.94-1.94,1.94H50.51c-1.07,0-1.94-0.87-1.94-1.94V1.94C48.57,0.87,49.44,0,50.51,0L50.51,0z M76.09,5.43H49.8v14.11 c0,0.15,0.06,0.28,0.16,0.38c0.1,0.1,0.23,0.16,0.38,0.16h25.21c0.15,0,0.28-0.06,0.38-0.16c0.1-0.1,0.16-0.23,0.16-0.38 L76.09,5.43L76.09,5.43L76.09,5.43z M73.45,2.18c0.53,0,0.96,0.43,0.96,0.96c0,0.53-0.43,0.96-0.96,0.96 c-0.53,0-0.96-0.43-0.96-0.96C72.49,2.61,72.92,2.18,73.45,2.18L73.45,2.18z M66.95,2.18c0.53,0,0.96,0.43,0.96,0.96 c0,0.53-0.43,0.96-0.96,0.96c-0.53,0-0.96-0.43-0.96-0.96C65.99,2.61,66.42,2.18,66.95,2.18L66.95,2.18z M70.2,2.18 c0.53,0,0.96,0.43,0.96,0.96c0,0.53-0.43,0.96-0.96,0.96c-0.53,0-0.96-0.43-0.96-0.96C69.24,2.61,69.67,2.18,70.2,2.18L70.2,2.18z M59.36,11.38l-3.16,1.19l3.16,1.2v2.78l-4.91-2.78v-2.39l4.91-2.78V11.38L59.36,11.38z M71.36,11.38v2.39l-4.91,2.78v-2.78 l3.16-1.2l-3.16-1.19V8.59L71.36,11.38L71.36,11.38z M62.85,17.33h-2.09l2.58-10.06h2.09L62.85,17.33L62.85,17.33z M119.89,55.64 c0.04,0,0.08,0,0.12,0.01c0.25-0.44,0.48-0.91,0.7-1.4c0.01-0.01,0.01-0.02,0.02-0.02c0.31-0.75,0.56-1.52,0.71-2.32 c0.12-0.62,0.21-1.26,0.23-1.91h-3.76c-0.07,1.91-0.64,3.79-1.7,5.64L119.89,55.64L119.89,55.64L119.89,55.64z M119.24,56.84h-3.78 c-1.15,1.67-2.7,3.31-4.63,4.93c0.3-0.04,0.61-0.09,0.9-0.15c0.81-0.16,1.59-0.4,2.35-0.73c0.76-0.33,1.48-0.71,2.14-1.16 c0.66-0.44,1.27-0.94,1.84-1.51C118.48,57.79,118.89,57.33,119.24,56.84L119.24,56.84L119.24,56.84z M107.6,61.77 c-1.94-1.62-3.49-3.26-4.63-4.93h-3.78c0.36,0.49,0.76,0.95,1.2,1.39c0.57,0.57,1.17,1.07,1.84,1.51c0.66,0.44,1.37,0.83,2.14,1.16 c0.01,0.01,0.02,0.01,0.02,0.02c0.75,0.31,1.52,0.56,2.32,0.71C107,61.68,107.3,61.72,107.6,61.77L107.6,61.77L107.6,61.77z M98.4,55.64h3.81c-1.06-1.85-1.63-3.74-1.7-5.64h-3.76c0.03,0.66,0.11,1.29,0.23,1.91c0.16,0.81,0.4,1.59,0.73,2.35 C97.91,54.74,98.14,55.2,98.4,55.64L98.4,55.64z M96.75,48.8h3.78c0.14-1.87,0.76-3.75,1.87-5.64h-4c-0.25,0.44-0.48,0.9-0.69,1.39 c-0.01,0.01-0.01,0.02-0.02,0.02c-0.31,0.75-0.56,1.52-0.71,2.32C96.85,47.51,96.77,48.14,96.75,48.8L96.75,48.8z M99.18,41.96 h3.99c1.14-1.64,2.64-3.29,4.51-4.95c-0.34,0.04-0.66,0.09-0.98,0.16c-0.81,0.16-1.59,0.4-2.35,0.73 c-0.76,0.33-1.48,0.71-2.14,1.16c-0.66,0.44-1.27,0.94-1.84,1.51C99.94,41,99.54,41.46,99.18,41.96L99.18,41.96L99.18,41.96z M110.73,37.01c1.88,1.66,3.38,3.31,4.51,4.95h3.99c-0.36-0.49-0.76-0.95-1.2-1.39c-0.57-0.57-1.17-1.07-1.84-1.51 c-0.66-0.44-1.37-0.83-2.14-1.16c-0.01-0.01-0.02-0.01-0.02-0.02c-0.75-0.31-1.52-0.56-2.32-0.71 C111.39,37.11,111.06,37.06,110.73,37.01L110.73,37.01L110.73,37.01z M120.02,43.16h-4c1.11,1.89,1.73,3.77,1.87,5.64h3.78 c-0.03-0.66-0.11-1.29-0.23-1.91c-0.16-0.81-0.4-1.59-0.73-2.35C120.5,44.06,120.27,43.6,120.02,43.16L120.02,43.16L120.02,43.16z M106.46,35.99c0.89-0.18,1.8-0.27,2.75-0.27c0.94,0,1.85,0.09,2.75,0.27c0.88,0.17,1.72,0.43,2.55,0.79 c0.01,0,0.02,0.01,0.03,0.02c0.82,0.35,1.6,0.78,2.33,1.26c0.73,0.48,1.4,1.04,2.02,1.66c0.62,0.62,1.17,1.29,1.66,2.02 c0.49,0.73,0.91,1.51,1.26,2.33c0.36,0.84,0.62,1.7,0.8,2.58c0.18,0.89,0.27,1.8,0.27,2.75c0,0.94-0.09,1.85-0.27,2.75 c-0.17,0.88-0.43,1.72-0.79,2.55c0,0.01-0.01,0.02-0.02,0.03c-0.35,0.83-0.78,1.6-1.26,2.33c-0.48,0.73-1.04,1.4-1.66,2.02 c-0.62,0.62-1.29,1.17-2.02,1.66c-0.73,0.49-1.51,0.91-2.33,1.26c-0.84,0.36-1.7,0.62-2.58,0.8c-0.89,0.18-1.8,0.27-2.75,0.27 c-0.94,0-1.85-0.09-2.75-0.27c-0.88-0.17-1.72-0.43-2.55-0.79c-0.01,0-0.02-0.01-0.03-0.02c-0.82-0.35-1.6-0.78-2.33-1.26 c-0.73-0.48-1.4-1.04-2.02-1.66c-0.62-0.62-1.17-1.29-1.66-2.02c-0.49-0.73-0.91-1.51-1.26-2.33c-0.36-0.84-0.62-1.7-0.8-2.58 c-0.18-0.89-0.27-1.8-0.27-2.75c0-0.94,0.09-1.85,0.27-2.75c0.17-0.88,0.43-1.72,0.79-2.55c0-0.01,0.01-0.02,0.02-0.03 c0.35-0.83,0.78-1.6,1.26-2.33c0.48-0.73,1.04-1.4,1.66-2.02c0.62-0.62,1.29-1.17,2.02-1.66c0.73-0.49,1.51-0.91,2.33-1.26 C104.71,36.44,105.57,36.18,106.46,35.99L106.46,35.99z M109.81,37.79v4.17h3.97C112.73,40.58,111.41,39.19,109.81,37.79 L109.81,37.79z M109.81,43.16v5.64h6.88c-0.16-1.85-0.85-3.73-2.08-5.64H109.81L109.81,43.16z M109.81,50v5.64h5.01 c1.19-1.87,1.82-3.75,1.89-5.64H109.81L109.81,50z M109.81,56.84v4.22c1.7-1.39,3.09-2.8,4.17-4.22H109.81L109.81,56.84z M108.61,61.05v-4.22h-4.17C105.51,58.25,106.9,59.66,108.61,61.05L108.61,61.05z M108.61,55.64V50h-6.91 c0.07,1.89,0.71,3.77,1.89,5.64H108.61L108.61,55.64z M108.61,48.8v-5.64h-4.81c-1.23,1.91-1.92,3.79-2.07,5.64H108.61L108.61,48.8 z M108.61,41.96v-4.17c-1.61,1.4-2.93,2.79-3.97,4.17H108.61L108.61,41.96z M9.43,49.4l-4.43-6.43c0.78-0.94,1.46-1.94,2.05-2.99 c0.61-1.09,1.12-2.23,1.56-3.42l7.8,0.75L9.43,49.4L9.43,49.4L9.43,49.4z M10.89,50.28l7.01-12.15l12.09,6.98l-0.96,1.66 l-9.62-5.55c-0.52-0.3-1.2-0.12-1.5,0.4c-0.3,0.52-0.12,1.2,0.4,1.5l9.62,5.55l-0.9,1.55l-9.62-5.55c-0.52-0.3-1.2-0.12-1.5,0.4 c-0.3,0.52-0.12,1.2,0.4,1.5l9.62,5.55l-0.9,1.55l-9.62-5.55c-0.52-0.3-1.2-0.12-1.5,0.4c-0.3,0.52-0.12,1.2,0.4,1.5l9.62,5.55 l-0.96,1.66L10.89,50.28L10.89,50.28L10.89,50.28z M3.48,40.78L0,35.73l5.97,0.58c-0.34,0.84-0.72,1.65-1.15,2.42 C4.43,39.45,3.98,40.13,3.48,40.78L3.48,40.78L3.48,40.78z M17.37,84.16c0.51,1.14,0,2.48-1.15,2.99c-1.14,0.51-2.48,0-2.99-1.15 c-1.27-2.84-2.31-5.79-3.07-8.84c-0.75-2.99-1.25-6.09-1.48-9.26c-0.09-1.25,0.85-2.34,2.11-2.43c1.25-0.09,2.34,0.85,2.43,2.11 c0.21,2.9,0.67,5.73,1.35,8.47C15.27,78.88,16.22,81.58,17.37,84.16L17.37,84.16z M26.91,30c-0.93,0.83-2.36,0.75-3.2-0.18 c-0.83-0.93-0.75-2.36,0.18-3.2c2.12-1.89,4.6-3.83,7.16-5.5c2.3-1.5,4.67-2.79,6.93-3.67c1.17-0.45,2.48,0.13,2.93,1.3 c0.45,1.17-0.13,2.48-1.3,2.93c-1.95,0.75-4.04,1.9-6.1,3.24C31.15,26.47,28.85,28.26,26.91,30L26.91,30z M85.7,20.39 c-1.08-0.63-1.44-2.02-0.81-3.1c0.63-1.08,2.02-1.44,3.1-0.81c2.54,1.48,4.95,3.18,7.2,5.05c2.27,1.88,4.38,3.95,6.3,6.16 c0.82,0.95,0.72,2.38-0.23,3.2c-0.95,0.82-2.38,0.72-3.2-0.23c-1.77-2.04-3.7-3.93-5.76-5.65C90.24,23.31,88.03,21.76,85.7,20.39 L85.7,20.39z M110.86,70.57c0.16-1.24,1.3-2.12,2.54-1.95s2.12,1.3,1.95,2.54c-0.34,2.56-0.85,5.05-1.53,7.45 c-0.69,2.47-1.56,4.85-2.57,7.15c-0.51,1.15-1.85,1.67-2.99,1.16c-1.15-0.51-1.67-1.85-1.16-2.99c0.94-2.12,1.73-4.3,2.36-6.54 C110.08,75.16,110.56,72.88,110.86,70.57L110.86,70.57z M50.27,54.51c-0.69,0.03-1.22,0.17-1.57,0.41 c-0.2,0.14-0.35,0.31-0.45,0.52c-0.11,0.23-0.16,0.51-0.15,0.84c0.03,0.95,0.53,2.19,1.49,3.62l0.01,0.02l0,0l3.12,4.97 c1.25,1.99,2.57,4.02,4.2,5.51c1.57,1.43,3.47,2.41,5.99,2.41c2.73,0.01,4.72-1,6.34-2.52c1.68-1.58,3.01-3.74,4.32-5.89l3.52-5.8 c0.66-1.5,0.89-2.5,0.74-3.09c-0.09-0.35-0.48-0.52-1.13-0.55c-0.14-0.01-0.28-0.01-0.43,0c-0.16,0-0.32,0.02-0.49,0.03 c-0.09,0.01-0.18,0-0.27-0.02c-0.31,0.02-0.64,0-0.96-0.05l1.21-4.84c-8.94,1.41-15.63-5.23-25.08-1.33l0.68,5.79 C50.96,54.58,50.6,54.56,50.27,54.51L50.27,54.51L50.27,54.51z M77.9,53.39c0.87,0.26,1.42,0.81,1.65,1.7 c0.25,0.98-0.02,2.37-0.86,4.27l0,0c-0.02,0.03-0.03,0.07-0.05,0.1l-3.56,5.86c-1.37,2.26-2.77,4.52-4.62,6.27 c-1.93,1.8-4.3,3-7.54,2.99c-3.03-0.01-5.31-1.17-7.18-2.88c-1.81-1.65-3.19-3.79-4.5-5.87l-3.12-4.97 c-1.14-1.7-1.74-3.26-1.77-4.54c-0.02-0.6,0.08-1.15,0.31-1.63c0.23-0.5,0.59-0.92,1.07-1.25c0.23-0.15,0.48-0.28,0.76-0.39 c-0.2-2.69-0.28-5.59-0.15-8.43c0.07-0.67,0.2-1.35,0.39-2.02c0.8-2.85,2.8-4.16,5.28-5.73c1.37-0.87,2.86-1.53,4.43-1.97 c0.99-0.28-0.84-3.45,0.18-3.56c4.96-0.51,12.98,4.02,16.45,7.76c1.73,1.88,2.82,3.37,3.06,6.66L77.9,53.39L77.9,53.39L77.9,53.39z"/></g></svg>